#!OML:ASF F:\VICON\USERDATA\INSTALL\rory3\rory3.ASF
:FULLY-SPECIFIED
:DEGREES
95
root -13.2082 17.6399 2.85445 -2.52402 -6.64569 0.155937
lowerback 9.41641 2.59905 -0.0714213
upperback 0.160384 3.43703 -0.239339
thorax -5.09944 1.69414 -0.677737
lowerneck -20.7856 -5.64024 -12.1654
upperneck 28.8523 -6.87856 9.27379
head 14.1227 -3.08652 4.5599
rclavicle -1.85615e-014 -7.95139e-016
rhumerus -31.2886 -14.9503 -81.6248
rradius 36.8624
rwrist 1.87849
rhand -16.0631 8.85199
rfingers 7.12502
rthumb 10.1393 -20.8837
lclavicle -1.85615e-014 -7.95139e-016
lhumerus -38.2918 13.8071 78.7989
lradius 22.4989
lwrist -15.5115
lhand -17.9624 24.15
lfingers 7.12502
lthumb 8.30664 53.9667
rfemur 11.6049 2.86422 23.0237
rtibia 35.8268
rfoot -2.77501 0.417975
rtoes -5.18246
lfemur -18.8571 -2.15761 -21.5315
ltibia 16.3411
lfoot 5.78399 -2.54952
ltoes -10.5756
96
root -13.1858 17.6521 3.02674 -2.77298 -6.43281 0.224022
lowerback 9.46606 2.52545 0.0357123
upperback 0.258028 3.34951 -0.255419
thorax -5.01856 1.64875 -0.741739
lowerneck -20.8223 -5.6643 -12.3839
upperneck 28.9141 -6.87948 9.41148
head 14.1745 -3.09306 4.6579
rclavicle -6.69811e-015 -6.95746e-015
rhumerus -31.6423 -15.5021 -81.4118
rradius 36.6923
rwrist 2.20612
rhand -15.6935 8.62953
rfingers 7.12502
rthumb 10.4958 -21.0884
lclavicle -6.69811e-015 -6.95746e-015
lhumerus -38.2422 14.4275 78.5462
lradius 22.4788
lwrist -16.2851
lhand -17.527 23.9039
lfingers 7.12502
lthumb 8.72676 53.7035
rfemur 10.8436 2.28166 22.5578
rtibia 38.0096
rfoot -0.0449095 1.14203
rtoes -3.57376
lfemur -18.2815 -2.17149 -21.8223
ltibia 16.8704
lfoot 5.49837 -2.85654
ltoes -8.64826
97
root -13.1638 17.6655 3.19806 -3.09164 -6.40289 0.249376
lowerback 9.60126 2.52011 0.14432
upperback 0.312019 3.35495 -0.235224
thorax -5.03277 1.64888 -0.78723
lowerneck -20.6087 -5.60625 -12.2601
upperneck 28.8577 -6.8114 9.25997
head 14.0811 -3.07437 4.58475
rclavicle 1.09339e-014 7.70291e-015
rhumerus -32.1525 -15.9146 -81.1105
rradius 36.3016
rwrist 2.23598
rhand -15.8487 8.0179
rfingers 7.12502
rthumb 10.3461 -21.7076
lclavicle 1.09339e-014 7.70291e-015
lhumerus -38.341 14.636 78.5157
lradius 22.6978
lwrist -16.6007
lhand -17.4614 23.9565
lfingers 7.12502
lthumb 8.79011 53.7534
rfemur 10.036 1.84208 22.1249
rtibia 40.1835
rfoot 2.68062 1.90593
rtoes -2.04162
lfemur -17.5528 -2.15828 -22.0408
ltibia 17.2673
lfoot 5.23237 -2.92336
ltoes -2.17332
98
root -13.143 17.6808 3.36562 -3.42745 -6.46165 0.360228
lowerback 9.72728 2.55369 0.166102
upperback 0.39978 3.40078 -0.250041
thorax -5.00882 1.67094 -0.82462
lowerneck -20.4848 -5.58979 -12.1645
upperneck 28.824 -6.79072 9.12752
head 14.0263 -3.07482 4.51606
rclavicle -4.9207e-015 5.69021e-015
rhumerus -32.5355 -16.4903 -80.756
rradius 35.5032
rwrist 2.59943
rhand -16.2472 7.55325
rfingers 7.12502
rthumb 9.96168 -22.191
lclavicle -4.9207e-015 5.69021e-015
lhumerus -38.3315 14.2048 78.831
lradius 22.9897
lwrist -16.022
lhand -17.4835 24.4842
lfingers 7.12502
lthumb 8.76874 54.2821
rfemur 9.16002 1.57487 21.6248
rtibia 42.3549
rfoot 5.33066 2.81834
rtoes -0.419396
lfemur -16.713 -2.16633 -22.3342
ltibia 17.5031
lfoot 5.11765 -2.78002
ltoes -5.03719
99
root -13.1236 17.7034 3.5293 -3.70212 -6.55645 0.575604
lowerback 9.85062 2.57659 0.0811884
upperback 0.517149 3.41795 -0.310933
thorax -4.95604 1.68102 -0.845283
lowerneck -20.7566 -5.64276 -12.1794
upperneck 28.9118 -6.82454 9.09612
head 14.1275 -3.08969 4.5007
rclavicle -1.43525e-014 -2.84511e-015
rhumerus -32.7223 -16.9012 -80.5668
rradius 34.8649
rwrist 2.92546
rhand -16.4608 7.747
rfingers 7.12502
rthumb 9.75562 -22.007
lclavicle -1.43525e-014 -2.84511e-015
lhumerus -38.1603 13.4121 79.3335
lradius 23.3599
lwrist -15.0813
lhand -17.0152 24.8721
lfingers 7.12502
lthumb 9.22063 54.6505
rfemur 8.15996 1.44005 21.0446
rtibia 44.5189
rfoot 7.7564 3.7066
rtoes 3.18654
lfemur -15.9082 -2.17128 -22.7279
ltibia 17.5915
lfoot 5.21386 -2.59922
ltoes -4.73942
100
root -13.1032 17.7278 3.69318 -3.96591 -6.68212 0.924019
lowerback 9.89165 2.63296 -0.0992199
upperback 0.656397 3.46643 -0.425237
thorax -4.8363 1.7086 -0.867432
lowerneck -21.0441 -5.69263 -12.0943
upperneck 29.0665 -6.85863 8.96263
head 14.2524 -3.10734 4.42753
rclavicle -2.93534e-014 -2.85753e-015
rhumerus -32.9524 -17.1868 -80.4568
rradius 34.6052
rwrist 2.95821
rhand -16.3708 8.03198
rfingers 7.12502
rthumb 9.84244 -21.718
lclavicle -2.93534e-014 -2.85753e-015
lhumerus -37.8888 12.6654 79.8109
lradius 23.6702
lwrist -14.3953
lhand -16.9821 24.8092
lfingers 7.12502
lthumb 9.25257 54.5862
rfemur 7.14117 1.34832 20.3308
rtibia 46.6463
rfoot 9.69308 4.3753
rtoes 8.12205
lfemur -15.1508 -2.18154 -23.2854
ltibia 17.7001
lfoot 5.2005 -2.41677
ltoes -2.96374
101
root -13.0843 17.7481 3.85349 -4.22594 -6.82971 1.22492
lowerback 9.93877 2.72142 -0.257406
upperback 0.722597 3.56118 -0.522135
thorax -4.79582 1.75798 -0.893038
lowerneck -20.8526 -5.69304 -12.0554
upperneck 28.9897 -6.87268 8.90422
head 14.1747 -3.12049 4.39179
rclavicle -2.58191e-014 1.10947e-014
rhumerus -33.3569 -17.3177 -80.3271
rradius 34.2706
rwrist 2.92777
rhand -16.2166 8.13848
rfingers 7.12502
rthumb 9.99117 -21.6044
lclavicle -2.58191e-014 1.10947e-014
lhumerus -37.7133 11.3395 80.5134
lradius 23.9979
lwrist -13.0366
lhand -17.3072 24.7025
lfingers 7.12502
lthumb 8.93891 54.4931
rfemur 6.10268 1.21354 19.6859
rtibia 48.7246
rfoot 11.2177 4.78039
rtoes 12.5387
lfemur -14.3912 -2.22453 -23.7806
ltibia 17.8411
lfoot 4.97443 -2.14784
ltoes -1.91008
